<?xml version="1.0" encoding="utf-8"?>
<!-- Generator: Adobe Illustrator 16.0.0, SVG Export Plug-In . SVG Version: 6.00 Build 0)  -->
<!DOCTYPE svg PUBLIC "-//W3C//DTD SVG 1.1//EN" "http://www.w3.org/Graphics/SVG/1.1/DTD/svg11.dtd">
<svg version="1.1" id="Layer_1" xmlns="http://www.w3.org/2000/svg" xmlns:xlink="http://www.w3.org/1999/xlink" x="0px" y="0px"
	 width="60.422px" height="52.086px" viewBox="0 0 60.422 52.086" enable-background="new 0 0 60.422 52.086" xml:space="preserve">
<g>
	<path fill="none" d="M18.09,24.515c-0.006,0.204-0.008,0.409-0.008,0.615C18.083,24.925,18.084,24.72,18.09,24.515z"/>
	<path fill="none" d="M19.924,15.803c-0.004,0-0.008,0.001-0.012,0.001c-1.091,2.676-1.727,5.564-1.818,8.58
		C18.186,21.363,18.826,18.488,19.924,15.803z"/>
	
		<linearGradient id="SVGID_1_" gradientUnits="userSpaceOnUse" x1="263.627" y1="-246.8398" x2="264.1016" y2="-246.8398" gradientTransform="matrix(1 0 0 -1 -228 -203.9141)">
		<stop  offset="0" style="stop-color:#FE14A7"/>
		<stop  offset="0.087" style="stop-color:#F513A4"/>
		<stop  offset="0.2317" style="stop-color:#DB129C"/>
		<stop  offset="0.4164" style="stop-color:#B1108E"/>
		<stop  offset="0.6337" style="stop-color:#780C7C"/>
		<stop  offset="0.8757" style="stop-color:#2F0864"/>
		<stop  offset="1" style="stop-color:#070657"/>
	</linearGradient>
	<path fill="url(#SVGID_1_)" d="M36.102,43.222l-0.445-0.592c-0.01,0.068-0.02,0.137-0.029,0.205
		C35.785,42.966,35.941,43.095,36.102,43.222z"/>
	
		<linearGradient id="SVGID_2_" gradientUnits="userSpaceOnUse" x1="249.584" y1="-253.6992" x2="270.5078" y2="-253.6992" gradientTransform="matrix(1 0 0 -1 -228 -203.9141)">
		<stop  offset="0" style="stop-color:#FE14A7"/>
		<stop  offset="0.087" style="stop-color:#F513A4"/>
		<stop  offset="0.2317" style="stop-color:#DB129C"/>
		<stop  offset="0.4164" style="stop-color:#B1108E"/>
		<stop  offset="0.6337" style="stop-color:#780C7C"/>
		<stop  offset="0.8757" style="stop-color:#2F0864"/>
		<stop  offset="1" style="stop-color:#070657"/>
	</linearGradient>
	<path fill="url(#SVGID_2_)" d="M32.477,48.327c-0.912,0.387-1.863,0.777-2.841,1.09c-2.528,0.867-5.269,1.393-8.051,1.826h20.923
		l-0.082-0.219C38.871,50.714,35.514,49.774,32.477,48.327z"/>
	
		<linearGradient id="SVGID_3_" gradientUnits="userSpaceOnUse" x1="255.3848" y1="-234.9365" x2="263.9775" y2="-234.9365" gradientTransform="matrix(1 0 0 -1 -228 -203.9141)">
		<stop  offset="0" style="stop-color:#FE14A7"/>
		<stop  offset="0.087" style="stop-color:#F513A4"/>
		<stop  offset="0.2317" style="stop-color:#DB129C"/>
		<stop  offset="0.4164" style="stop-color:#B1108E"/>
		<stop  offset="0.6337" style="stop-color:#780C7C"/>
		<stop  offset="0.8757" style="stop-color:#2F0864"/>
		<stop  offset="1" style="stop-color:#070657"/>
	</linearGradient>
	<path fill="url(#SVGID_3_)" d="M35.627,42.835c0.012-0.082,0.023-0.164,0-0.244l-0.152-0.203c0.09,0.066,0.133,0.135,0.152,0.203
		l0.029,0.039c0.012-0.08,0.023-0.16,0.037-0.242c1.006-7.395-0.625-15.521-5.463-21.174l0.024-0.024l-0.319-0.312
		c-0.531-0.59-1.089-1.145-1.688-1.667c-0.559,1.963-0.862,4.028-0.862,6.164C27.385,32.349,30.581,38.601,35.627,42.835z"/>
	
		<linearGradient id="SVGID_4_" gradientUnits="userSpaceOnUse" x1="263.4746" y1="-246.4033" x2="263.6265" y2="-246.4033" gradientTransform="matrix(1 0 0 -1 -228 -203.9141)">
		<stop  offset="0" style="stop-color:#FE14A7"/>
		<stop  offset="0.087" style="stop-color:#F513A4"/>
		<stop  offset="0.2317" style="stop-color:#DB129C"/>
		<stop  offset="0.4164" style="stop-color:#B1108E"/>
		<stop  offset="0.6337" style="stop-color:#780C7C"/>
		<stop  offset="0.8757" style="stop-color:#2F0864"/>
		<stop  offset="1" style="stop-color:#070657"/>
	</linearGradient>
	<path fill="url(#SVGID_4_)" d="M35.475,42.388l0.152,0.203C35.607,42.522,35.564,42.456,35.475,42.388z"/>
	
		<linearGradient id="SVGID_5_" gradientUnits="userSpaceOnUse" x1="263.4746" y1="-246.4033" x2="263.6265" y2="-246.4033" gradientTransform="matrix(1 0 0 -1 -228 -203.9141)">
		<stop  offset="0" style="stop-color:#FE14A7"/>
		<stop  offset="0.087" style="stop-color:#F513A4"/>
		<stop  offset="0.2317" style="stop-color:#DB129C"/>
		<stop  offset="0.4164" style="stop-color:#B1108E"/>
		<stop  offset="0.6337" style="stop-color:#780C7C"/>
		<stop  offset="0.8757" style="stop-color:#2F0864"/>
		<stop  offset="1" style="stop-color:#070657"/>
	</linearGradient>
	<path fill="url(#SVGID_5_)" d="M35.475,42.388l0.152,0.203C35.607,42.522,35.564,42.456,35.475,42.388z"/>
	
		<linearGradient id="SVGID_6_" gradientUnits="userSpaceOnUse" x1="263.627" y1="-246.626" x2="263.656" y2="-246.626" gradientTransform="matrix(1 0 0 -1 -228 -203.9141)">
		<stop  offset="0" style="stop-color:#FE14A7"/>
		<stop  offset="0.087" style="stop-color:#F513A4"/>
		<stop  offset="0.2317" style="stop-color:#DB129C"/>
		<stop  offset="0.4164" style="stop-color:#B1108E"/>
		<stop  offset="0.6337" style="stop-color:#780C7C"/>
		<stop  offset="0.8757" style="stop-color:#2F0864"/>
		<stop  offset="1" style="stop-color:#070657"/>
	</linearGradient>
	<path fill="url(#SVGID_6_)" d="M35.627,42.835c0.01-0.068,0.02-0.137,0.029-0.205l-0.029-0.041
		C35.65,42.673,35.639,42.753,35.627,42.835z"/>
	
		<linearGradient id="SVGID_7_" gradientUnits="userSpaceOnUse" x1="263.627" y1="-246.626" x2="263.656" y2="-246.626" gradientTransform="matrix(1 0 0 -1 -228 -203.9141)">
		<stop  offset="0" style="stop-color:#FE14A7"/>
		<stop  offset="0.087" style="stop-color:#F513A4"/>
		<stop  offset="0.2317" style="stop-color:#DB129C"/>
		<stop  offset="0.4164" style="stop-color:#B1108E"/>
		<stop  offset="0.6337" style="stop-color:#780C7C"/>
		<stop  offset="0.8757" style="stop-color:#2F0864"/>
		<stop  offset="1" style="stop-color:#070657"/>
	</linearGradient>
	<path fill="url(#SVGID_7_)" d="M35.627,42.835c0.01-0.068,0.02-0.137,0.029-0.205l-0.029-0.041
		C35.65,42.673,35.639,42.753,35.627,42.835z"/>
	
		<linearGradient id="SVGID_8_" gradientUnits="userSpaceOnUse" x1="229.1816" y1="-237.522" x2="260.5527" y2="-237.522" gradientTransform="matrix(1 0 0 -1 -228 -203.9141)">
		<stop  offset="0" style="stop-color:#FE14A7"/>
		<stop  offset="0.087" style="stop-color:#F513A4"/>
		<stop  offset="0.2317" style="stop-color:#DB129C"/>
		<stop  offset="0.4164" style="stop-color:#B1108E"/>
		<stop  offset="0.6337" style="stop-color:#780C7C"/>
		<stop  offset="0.8757" style="stop-color:#2F0864"/>
		<stop  offset="1" style="stop-color:#070657"/>
	</linearGradient>
	<path fill="url(#SVGID_8_)" d="M29.23,46.868c-7.261-4.711-12.019-12.553-12.019-21.466c0-3.297,0.653-6.396,1.842-9.301
		c0.035-0.087,0.076-0.173,0.111-0.259c-6.078,0.709-11.027,5.657-8.091,12.063C1.162,25.269-2.524,40.397,5.738,46.993
		c4.616,3.686,10.757,4.793,16.716,4.25c2.467-0.225,4.899-0.732,7.182-1.461c0.949-0.326,1.871-0.688,2.751-1.09
		c0.029,0.016,0.061,0.029,0.09,0.043c0.025-0.012,0.051-0.021,0.076-0.031c-0.055-0.025-0.111-0.053-0.168-0.078
		C31.291,48.099,30.235,47.522,29.23,46.868z"/>
	
		<linearGradient id="SVGID_9_" gradientUnits="userSpaceOnUse" x1="257.6348" y1="-253.1514" x2="260.4766" y2="-253.1514" gradientTransform="matrix(1 0 0 -1 -228 -203.9141)">
		<stop  offset="0" style="stop-color:#FE14A7"/>
		<stop  offset="0.087" style="stop-color:#F513A4"/>
		<stop  offset="0.2317" style="stop-color:#DB129C"/>
		<stop  offset="0.4164" style="stop-color:#B1108E"/>
		<stop  offset="0.6337" style="stop-color:#780C7C"/>
		<stop  offset="0.8757" style="stop-color:#2F0864"/>
		<stop  offset="1" style="stop-color:#070657"/>
	</linearGradient>
	<path fill="url(#SVGID_9_)" d="M29.635,49.782c0.979-0.311,1.929-0.662,2.841-1.049c-0.029-0.014-0.061-0.025-0.09-0.041
		C31.506,49.095,30.584,49.458,29.635,49.782z"/>
	
		<linearGradient id="SVGID_10_" gradientUnits="userSpaceOnUse" x1="257.6348" y1="-253.1514" x2="260.4766" y2="-253.1514" gradientTransform="matrix(1 0 0 -1 -228 -203.9141)">
		<stop  offset="0" style="stop-color:#FE14A7"/>
		<stop  offset="0.087" style="stop-color:#F513A4"/>
		<stop  offset="0.2317" style="stop-color:#DB129C"/>
		<stop  offset="0.4164" style="stop-color:#B1108E"/>
		<stop  offset="0.6337" style="stop-color:#780C7C"/>
		<stop  offset="0.8757" style="stop-color:#2F0864"/>
		<stop  offset="1" style="stop-color:#070657"/>
	</linearGradient>
	<path fill="url(#SVGID_10_)" d="M29.635,49.782c0.979-0.311,1.929-0.662,2.841-1.049c-0.029-0.014-0.061-0.025-0.09-0.041
		C31.506,49.095,30.584,49.458,29.635,49.782z"/>
	
		<linearGradient id="SVGID_11_" gradientUnits="userSpaceOnUse" x1="246.084" y1="-229.3467" x2="289.6035" y2="-229.3467" gradientTransform="matrix(1 0 0 -1 -228 -203.9141)">
		<stop  offset="0" style="stop-color:#FE14A7"/>
		<stop  offset="0.087" style="stop-color:#F513A4"/>
		<stop  offset="0.2317" style="stop-color:#DB129C"/>
		<stop  offset="0.4164" style="stop-color:#B1108E"/>
		<stop  offset="0.6337" style="stop-color:#780C7C"/>
		<stop  offset="0.8757" style="stop-color:#2F0864"/>
		<stop  offset="1" style="stop-color:#070657"/>
	</linearGradient>
	<path fill="url(#SVGID_11_)" d="M59.924,47.118c-3.088,0.855-5.84,1.348-8.709,1.348c-3.002,0-5.873-0.539-8.518-1.521
		c-2.199-0.816-4.242-1.941-6.072-3.316c-0.176-0.133-0.352-0.27-0.521-0.406l0.07,0.096c0.102,0.105,0.186,0.209,0.232,0.311
		l-0.232-0.311c-0.152-0.158-0.35-0.318-0.545-0.482c-5.046-4.234-8.242-10.486-8.242-17.462c0-2.135,0.303-4.202,0.861-6.164
		c1.889-6.624,6.744-12.055,13.095-14.859c3.006-1.328,6.217-2.066,9.736-2.066c3.521,0,7.334,1.229,10.381,2.557V3.662
		C56.891,0.443,51.113-0.61,44.914-0.61c-6.201,0-11.793,2.021-16.42,5.286h-0.002c-4.124,2.601-7.368,6.622-9.3,11.165
		c0.243-0.027,0.486-0.05,0.732-0.064c-0.004,0.01-0.006,0.02-0.011,0.028c0.003,0,0.007,0,0.011-0.001
		c-1.098,2.684-1.737,5.559-1.828,8.581c-0.002,0.044-0.004,0.088-0.006,0.132c-0.004,0.204-0.006,0.409-0.006,0.615
		c0,8.914,4.756,16.783,12.018,21.494c1.005,0.654,2.062,1.242,3.158,1.771c-0.232,0.105-0.467,0.207-0.705,0.309
		c3.02,1.426,6.35,2.346,9.873,2.654c0.863,0.076,1.736,0.115,2.623,0.115c5.717,0,11.594-1.48,16.553-4.207L59.924,47.118z"/>
	
		<linearGradient id="SVGID_12_" gradientUnits="userSpaceOnUse" x1="264.1738" y1="-247.3877" x2="264.4072" y2="-247.3877" gradientTransform="matrix(1 0 0 -1 -228 -203.9141)">
		<stop  offset="0" style="stop-color:#FE14A7"/>
		<stop  offset="0.087" style="stop-color:#F513A4"/>
		<stop  offset="0.2317" style="stop-color:#DB129C"/>
		<stop  offset="0.4164" style="stop-color:#B1108E"/>
		<stop  offset="0.6337" style="stop-color:#780C7C"/>
		<stop  offset="0.8757" style="stop-color:#2F0864"/>
		<stop  offset="1" style="stop-color:#070657"/>
	</linearGradient>
	<path fill="url(#SVGID_12_)" d="M36.174,43.319l0.232,0.309C36.357,43.526,36.275,43.425,36.174,43.319z"/>
	
		<linearGradient id="SVGID_13_" gradientUnits="userSpaceOnUse" x1="264.1738" y1="-247.3877" x2="264.4072" y2="-247.3877" gradientTransform="matrix(1 0 0 -1 -228 -203.9141)">
		<stop  offset="0" style="stop-color:#FE14A7"/>
		<stop  offset="0.087" style="stop-color:#F513A4"/>
		<stop  offset="0.2317" style="stop-color:#DB129C"/>
		<stop  offset="0.4164" style="stop-color:#B1108E"/>
		<stop  offset="0.6337" style="stop-color:#780C7C"/>
		<stop  offset="0.8757" style="stop-color:#2F0864"/>
		<stop  offset="1" style="stop-color:#070657"/>
	</linearGradient>
	<path fill="url(#SVGID_13_)" d="M36.174,43.319l0.232,0.309C36.357,43.526,36.275,43.425,36.174,43.319z"/>
	
		<linearGradient id="SVGID_14_" gradientUnits="userSpaceOnUse" x1="263.627" y1="-246.9912" x2="264.1738" y2="-246.9912" gradientTransform="matrix(1 0 0 -1 -228 -203.9141)">
		<stop  offset="0" style="stop-color:#FE14A7"/>
		<stop  offset="0.087" style="stop-color:#F513A4"/>
		<stop  offset="0.2317" style="stop-color:#DB129C"/>
		<stop  offset="0.4164" style="stop-color:#B1108E"/>
		<stop  offset="0.6337" style="stop-color:#780C7C"/>
		<stop  offset="0.8757" style="stop-color:#2F0864"/>
		<stop  offset="1" style="stop-color:#070657"/>
	</linearGradient>
	<path fill="url(#SVGID_14_)" d="M36.174,43.319l-0.072-0.096c-0.16-0.127-0.318-0.258-0.475-0.389
		C35.824,42.999,36.021,43.159,36.174,43.319z"/>
	
		<linearGradient id="SVGID_15_" gradientUnits="userSpaceOnUse" x1="263.627" y1="-246.9912" x2="264.1738" y2="-246.9912" gradientTransform="matrix(1 0 0 -1 -228 -203.9141)">
		<stop  offset="0" style="stop-color:#FE14A7"/>
		<stop  offset="0.087" style="stop-color:#F513A4"/>
		<stop  offset="0.2317" style="stop-color:#DB129C"/>
		<stop  offset="0.4164" style="stop-color:#B1108E"/>
		<stop  offset="0.6337" style="stop-color:#780C7C"/>
		<stop  offset="0.8757" style="stop-color:#2F0864"/>
		<stop  offset="1" style="stop-color:#070657"/>
	</linearGradient>
	<path fill="url(#SVGID_15_)" d="M36.174,43.319l-0.072-0.096c-0.16-0.127-0.318-0.258-0.475-0.389
		C35.824,42.999,36.021,43.159,36.174,43.319z"/>
	
		<linearGradient id="SVGID_16_" gradientUnits="userSpaceOnUse" x1="245.2109" y1="-236.167" x2="261.2578" y2="-236.167" gradientTransform="matrix(1 0 0 -1 -228 -203.9141)">
		<stop  offset="0" style="stop-color:#FE14A7"/>
		<stop  offset="0.087" style="stop-color:#F513A4"/>
		<stop  offset="0.2317" style="stop-color:#DB129C"/>
		<stop  offset="0.4164" style="stop-color:#B1108E"/>
		<stop  offset="0.6337" style="stop-color:#780C7C"/>
		<stop  offset="0.8757" style="stop-color:#2F0864"/>
		<stop  offset="1" style="stop-color:#070657"/>
	</linearGradient>
	<path fill="url(#SVGID_16_)" d="M30.1,46.624c-7.262-4.711-12.018-12.58-12.018-21.494c0-0.206,0.002-0.411,0.008-0.615
		c0-0.044,0.002-0.088,0.004-0.132c0.092-3.017,0.728-5.903,1.817-8.58c-0.25,0.015-0.5,0.063-0.748,0.093
		c0.009-0.019,0.019-0.037,0.025-0.057c-0.009,0.001-0.017,0.002-0.025,0.003c-0.036,0.086-0.075,0.172-0.112,0.259
		c-1.188,2.905-1.84,6.004-1.84,9.301c0,8.914,4.756,16.755,12.018,21.466c1.006,0.654,2.062,1.229,3.158,1.756
		c0.055,0.027,0.111,0.053,0.166,0.078c0.238-0.102,0.473-0.203,0.705-0.309C32.16,47.866,31.105,47.278,30.1,46.624z"/>
	
		<linearGradient id="SVGID_17_" gradientUnits="userSpaceOnUse" x1="245.2109" y1="-236.167" x2="261.2578" y2="-236.167" gradientTransform="matrix(1 0 0 -1 -228 -203.9141)">
		<stop  offset="0" style="stop-color:#FE14A7"/>
		<stop  offset="0.087" style="stop-color:#F513A4"/>
		<stop  offset="0.2317" style="stop-color:#DB129C"/>
		<stop  offset="0.4164" style="stop-color:#B1108E"/>
		<stop  offset="0.6337" style="stop-color:#780C7C"/>
		<stop  offset="0.8757" style="stop-color:#2F0864"/>
		<stop  offset="1" style="stop-color:#070657"/>
	</linearGradient>
	<path fill="url(#SVGID_17_)" d="M30.1,46.624c-7.262-4.711-12.018-12.58-12.018-21.494c0-0.206,0.002-0.411,0.008-0.615
		c0-0.044,0.002-0.088,0.004-0.132c0.092-3.017,0.728-5.903,1.817-8.58c-0.25,0.015-0.5,0.063-0.748,0.093
		c0.009-0.019,0.019-0.037,0.025-0.057c-0.009,0.001-0.017,0.002-0.025,0.003c-0.036,0.086-0.075,0.172-0.112,0.259
		c-1.188,2.905-1.84,6.004-1.84,9.301c0,8.914,4.756,16.755,12.018,21.466c1.006,0.654,2.062,1.229,3.158,1.756
		c0.055,0.027,0.111,0.053,0.166,0.078c0.238-0.102,0.473-0.203,0.705-0.309C32.16,47.866,31.105,47.278,30.1,46.624z"/>
	
		<linearGradient id="SVGID_18_" gradientUnits="userSpaceOnUse" x1="246.084" y1="-228.3633" x2="277.334" y2="-228.3633" gradientTransform="matrix(1 0 0 -1 -228 -203.9141)">
		<stop  offset="0" style="stop-color:#FE14A7"/>
		<stop  offset="0.087" style="stop-color:#F513A4"/>
		<stop  offset="0.2317" style="stop-color:#DB129C"/>
		<stop  offset="0.4164" style="stop-color:#B1108E"/>
		<stop  offset="0.6337" style="stop-color:#780C7C"/>
		<stop  offset="0.8757" style="stop-color:#2F0864"/>
		<stop  offset="1" style="stop-color:#070657"/>
	</linearGradient>
	<path fill="url(#SVGID_18_)" d="M18.094,24.383c0,0.044-0.004,0.088-0.004,0.132C18.09,24.471,18.094,24.428,18.094,24.383z"/>
	
		<linearGradient id="SVGID_19_" gradientUnits="userSpaceOnUse" x1="245.3877" y1="-228.3633" x2="258.2108" y2="-228.3633" gradientTransform="matrix(1 0 0 -1 -228 -203.9141)">
		<stop  offset="0" style="stop-color:#FE14A7"/>
		<stop  offset="0.087" style="stop-color:#F513A4"/>
		<stop  offset="0.2317" style="stop-color:#DB129C"/>
		<stop  offset="0.4164" style="stop-color:#B1108E"/>
		<stop  offset="0.6337" style="stop-color:#780C7C"/>
		<stop  offset="0.8757" style="stop-color:#2F0864"/>
		<stop  offset="1" style="stop-color:#070657"/>
	</linearGradient>
	<path fill="url(#SVGID_19_)" d="M18.094,24.383c0,0.044-0.004,0.088-0.004,0.132C18.09,24.471,18.094,24.428,18.094,24.383z"/>
	
		<linearGradient id="SVGID_20_" gradientUnits="userSpaceOnUse" x1="245.3877" y1="-228.3633" x2="258.2108" y2="-228.3633" gradientTransform="matrix(1 0 0 -1 -228 -203.9141)">
		<stop  offset="0" style="stop-color:#FE14A7"/>
		<stop  offset="0.087" style="stop-color:#F513A4"/>
		<stop  offset="0.2317" style="stop-color:#DB129C"/>
		<stop  offset="0.4164" style="stop-color:#B1108E"/>
		<stop  offset="0.6337" style="stop-color:#780C7C"/>
		<stop  offset="0.8757" style="stop-color:#2F0864"/>
		<stop  offset="1" style="stop-color:#070657"/>
	</linearGradient>
	<path fill="url(#SVGID_20_)" d="M18.094,24.383c0,0.044-0.004,0.088-0.004,0.132C18.09,24.471,18.094,24.428,18.094,24.383z"/>
	
		<linearGradient id="SVGID_21_" gradientUnits="userSpaceOnUse" x1="246.082" y1="-219.7515" x2="289.6071" y2="-219.7515" gradientTransform="matrix(1 0 0 -1 -228 -203.9141)">
		<stop  offset="0" style="stop-color:#FE14A7"/>
		<stop  offset="0.087" style="stop-color:#F513A4"/>
		<stop  offset="0.2317" style="stop-color:#DB129C"/>
		<stop  offset="0.4164" style="stop-color:#B1108E"/>
		<stop  offset="0.6337" style="stop-color:#780C7C"/>
		<stop  offset="0.8757" style="stop-color:#2F0864"/>
		<stop  offset="1" style="stop-color:#070657"/>
	</linearGradient>
	<path fill="url(#SVGID_21_)" d="M19.913,15.804c0.004-0.009,0.008-0.02,0.012-0.027c-0.246,0.015-0.49,0.037-0.733,0.063
		c-0.009,0.021-0.017,0.038-0.024,0.058C19.412,15.869,19.662,15.82,19.913,15.804z"/>
	
		<linearGradient id="SVGID_22_" gradientUnits="userSpaceOnUse" x1="245.2119" y1="-219.7515" x2="261.2597" y2="-219.7515" gradientTransform="matrix(1 0 0 -1 -228 -203.9141)">
		<stop  offset="0" style="stop-color:#FE14A7"/>
		<stop  offset="0.087" style="stop-color:#F513A4"/>
		<stop  offset="0.2317" style="stop-color:#DB129C"/>
		<stop  offset="0.4164" style="stop-color:#B1108E"/>
		<stop  offset="0.6337" style="stop-color:#780C7C"/>
		<stop  offset="0.8757" style="stop-color:#2F0864"/>
		<stop  offset="1" style="stop-color:#070657"/>
	</linearGradient>
	<path fill="url(#SVGID_22_)" d="M19.913,15.804c0.004-0.009,0.008-0.02,0.012-0.027c-0.246,0.015-0.49,0.037-0.733,0.063
		c-0.009,0.021-0.017,0.038-0.024,0.058C19.412,15.869,19.662,15.82,19.913,15.804z"/>
	
		<linearGradient id="SVGID_23_" gradientUnits="userSpaceOnUse" x1="245.2119" y1="-219.7515" x2="261.2597" y2="-219.7515" gradientTransform="matrix(1 0 0 -1 -228 -203.9141)">
		<stop  offset="0" style="stop-color:#FE14A7"/>
		<stop  offset="0.087" style="stop-color:#F513A4"/>
		<stop  offset="0.2317" style="stop-color:#DB129C"/>
		<stop  offset="0.4164" style="stop-color:#B1108E"/>
		<stop  offset="0.6337" style="stop-color:#780C7C"/>
		<stop  offset="0.8757" style="stop-color:#2F0864"/>
		<stop  offset="1" style="stop-color:#070657"/>
	</linearGradient>
	<path fill="url(#SVGID_23_)" d="M19.913,15.804c0.004-0.009,0.008-0.02,0.012-0.027c-0.246,0.015-0.49,0.037-0.733,0.063
		c-0.009,0.021-0.017,0.038-0.024,0.058C19.412,15.869,19.662,15.82,19.913,15.804z"/>
</g>
</svg>
