<?xml version="1.0" encoding="utf-8"?>
<!-- Generator: Adobe Illustrator 16.0.0, SVG Export Plug-In . SVG Version: 6.00 Build 0)  -->
<!DOCTYPE svg PUBLIC "-//W3C//DTD SVG 1.1//EN" "http://www.w3.org/Graphics/SVG/1.1/DTD/svg11.dtd">
<svg version="1.1" id="Layer_1" xmlns="http://www.w3.org/2000/svg" xmlns:xlink="http://www.w3.org/1999/xlink" x="0px" y="0px"
	 width="654.825px" height="148.67px" viewBox="128.968 178.83 654.825 148.67"
	 enable-background="new 128.968 178.83 654.825 148.67" xml:space="preserve">
<g enable-background="new    ">
	
		<image overflow="visible" opacity="0.97" width="692" height="127" xlink:href="5767FBCFB4089A4D.png"  transform="matrix(1 0 0 1 116.5 164.5)">
	</image>
	<g>
		<g>
			<path fill="#F414A4" d="M157.998,246.25c-7.633-0.024-14.148-2.93-19.545-8.716c-5.42-5.859-8.13-12.915-8.13-21.167
				c0-8.228,2.71-15.295,8.13-21.204c5.442-5.884,11.958-8.826,19.545-8.826l-0.034,0.146c8.432,0,15.135,4.049,19.647,8.752
				l-7.825,8.459c-3.297-3.516-7.215-5.273-11.754-5.273c-4.607,0-8.514,1.758-11.721,5.273c-3.252,3.564-4.878,7.8-4.878,12.708
				c0,4.956,1.626,9.192,4.878,12.708c3.229,3.491,7.136,5.237,11.721,5.237c4.607,0,8.536-1.758,11.788-5.273l7.825,8.459
				C173.164,242.335,166.516,246.25,157.998,246.25z"/>
			<path fill="#F414A4" d="M206.283,185.605l24.932,60.242h-11.89l-3.692-8.972h-18.699l-3.692,8.972h-11.856L206.283,185.605z
				 M211.296,226.401l-4.979-12.488l-5.047,12.488H211.296z"/>
			<path fill="#F414A4" d="M236.986,186.813h17.818c6.08,0,10.996,2.482,14.295,6.006c3.324,3.594,5.284,6.872,5.284,13.403v1.538
				c0,3.979-1.151,7.727-3.455,11.243c-1.918,2.903-3.437,4.138-6.538,5.457l12.703,21.387h-13.414l-15.684-26.111v26.111H237.02
				L236.986,186.813z M263.069,206.589c0-2.148-0.723-4.041-2.168-5.676c-1.424-1.497-4.128-2.344-6.775-2.344h-6.165v16.296h4.234
				v0.037h3.658C259.854,214.902,263.069,211.089,263.069,206.589z"/>
			<path fill="#F414A4" d="M328.089,195.163c5.443,5.884,8.164,12.952,8.164,21.204c0,8.276-2.721,15.332-8.164,21.167
				c-5.42,5.811-11.946,8.716-19.579,8.716c-7.656-0.024-14.182-2.93-19.58-8.716c-5.42-5.859-8.13-12.915-8.13-21.167
				c0-8.228,2.71-15.295,8.13-21.204c5.442-5.884,11.969-8.826,19.58-8.826S322.646,189.279,328.089,195.163z M296.755,203.586
				c-3.252,3.564-4.878,7.8-4.878,12.708c0,4.956,1.626,9.192,4.878,12.708c3.229,3.491,7.147,5.237,11.754,5.237
				c4.539,0,8.446-1.746,11.72-5.237c3.275-3.491,4.912-7.727,4.912-12.708c0-4.932-1.637-9.167-4.912-12.708
				c-3.252-3.516-7.159-5.273-11.72-5.273C303.88,198.312,299.962,200.07,296.755,203.586z"/>
			<path fill="#F414A4" d="M352.931,186.813v47.241h21.951v11.792h-32.926v-59.033H352.931z"/>
			<path fill="#F414A4" d="M427.694,186.447c8.43,0,15.151,4.016,19.613,8.752l-7.825,8.459c-3.319-3.54-7.227-5.31-11.72-5.31
				c-4.584,0-8.491,1.77-11.721,5.31c-3.252,3.516-4.878,7.751-4.878,12.708s1.626,9.192,4.878,12.708
				c3.207,3.516,7.114,5.273,11.721,5.273c7.097,0,12.582-4.769,14.972-10.327h-15.582v-11.316H455.2
				c0.78,11.033-2.568,19.042-7.961,24.829c-5.442,5.835-11.969,8.752-19.58,8.752c-7.678,0-14.193-2.917-19.545-8.752
				c-5.42-5.811-8.13-12.866-8.13-21.167c0-8.228,2.71-15.295,8.13-21.204c5.375-5.884,11.89-8.826,19.545-8.826L427.694,186.447z"
				/>
			<path fill="#F414A4" d="M506.327,195.163c5.442,5.884,8.164,12.952,8.164,21.204c0,8.276-2.722,15.332-8.164,21.167
				c-5.42,5.811-11.946,8.716-19.579,8.716c-7.656-0.024-14.183-2.93-19.58-8.716c-5.42-5.859-8.129-12.915-8.129-21.167
				c0-8.228,2.709-15.295,8.129-21.204c5.443-5.884,11.97-8.826,19.58-8.826S500.885,189.279,506.327,195.163z M474.993,203.586
				c-3.252,3.564-4.878,7.8-4.878,12.708c0,4.956,1.626,9.192,4.878,12.708c3.229,3.491,7.147,5.237,11.755,5.237
				c4.539,0,8.446-1.746,11.721-5.237s4.911-7.727,4.911-12.708c0-4.932-1.637-9.167-4.911-12.708
				c-3.252-3.516-7.159-5.273-11.721-5.273C482.118,198.312,478.2,200.07,474.993,203.586z"/>
			<path fill="#F414A4" d="M553.086,219.443v-32.776h11.01v60.388l-32.926-33.911v32.776h-10.976v-60.352L553.086,219.443z"/>
			<path fill="#F414A4" d="M608.281,186.813l-21.002,47.241h21.002v11.792h-38.414l21.003-47.278h-21.003v-11.755H608.281z"/>
			<path fill="#F414A4" d="M636.921,185.605l24.932,60.242h-11.89l-3.692-8.972h-18.699l-3.692,8.972h-11.855L636.921,185.605z
				 M641.935,226.401l-4.979-12.488l-5.048,12.488H641.935z"/>
			<path fill="#F414A4" d="M678.6,186.813v47.241h21.95v11.792h-32.926v-59.033H678.6z"/>
			<path fill="#F414A4" d="M739.25,186.667v11.829h-21.951v11.902h16.464v11.829h-16.464v11.902h21.951v11.792h-32.926v-59.253
				H739.25z"/>
			<path fill="#F414A4" d="M781.406,186.813l-21.002,47.241h21.002v11.792h-38.414l21.003-47.278h-21.003v-11.755H781.406z"/>
		</g>
	</g>
</g>
<g enable-background="new    ">
	
		<image overflow="visible" opacity="0.97" width="528" height="63" xlink:href="5767FBCFB4089A53.png"  transform="matrix(1 0 0 1 174.5 262.5)">
	</image>
	<g>
		<g>
			<path fill="#FAFAFA" d="M200.095,272.668v3.867h-11.97h-1.269v1.211v6.348v1.23h1.269h8.655v3.867h-8.655h-1.269v1.211v6.328
				v5.117h-4.072v-11.445v-6.309v-11.426H200.095z"/>
			<path fill="#FAFAFA" d="M203.632,272.727h9.494c1.514,0,2.947,0.254,4.297,0.762c1.283,0.482,2.428,1.178,3.438,2.09
				c1.037,1.002,1.76,1.959,2.169,2.871c0.437,0.951,0.655,2.09,0.655,3.418v0.82c0,1.002-0.157,1.928-0.471,2.773
				c-0.3,0.807-0.764,1.646-1.392,2.52c-0.532,0.703-1.037,1.217-1.514,1.543c-0.45,0.326-1.078,0.639-1.882,0.938l-1.433,0.547
				l0.839,1.25l6.425,9.512h-5.075l-6.937-10.176h-4.501v10.176h-4.092L203.632,272.727z M213.74,287.707l0.021,0.02
				c0.832,0,1.562-0.131,2.189-0.391c0.56-0.248,1.139-0.658,1.739-1.23c0.614-0.586,1.05-1.211,1.31-1.875
				c0.259-0.6,0.389-1.322,0.389-2.168c0-0.768-0.129-1.471-0.389-2.109c-0.246-0.547-0.675-1.133-1.289-1.758v-0.02
				c-0.559-0.521-1.296-0.924-2.21-1.211c-0.859-0.273-1.787-0.41-2.783-0.41h-3.724h-1.269v1.23v8.691v1.211h1.269l1.535,0.02
				h1.023H213.74z"/>
			<path fill="#FAFAFA" d="M247.928,273.566c1.787,0.716,3.458,1.81,5.013,3.281c1.528,1.458,2.667,3.047,3.417,4.766
				c0.764,1.758,1.146,3.646,1.146,5.664c0,2.031-0.382,3.92-1.146,5.664c-0.75,1.732-1.89,3.32-3.417,4.766
				c-1.5,1.432-3.171,2.514-5.013,3.242c-1.841,0.717-3.812,1.074-5.914,1.074c-2.128,0-4.106-0.357-5.934-1.074
				c-1.828-0.717-3.492-1.797-4.993-3.242c-1.542-1.459-2.674-3.053-3.397-4.785c-0.75-1.693-1.125-3.574-1.125-5.645
				c0-2.057,0.375-3.939,1.125-5.645c0.723-1.706,1.855-3.307,3.397-4.805c1.528-1.458,3.192-2.545,4.993-3.262
				c1.773-0.716,3.751-1.074,5.934-1.074C244.17,272.492,246.141,272.85,247.928,273.566z M237.656,277.219
				c-1.377,0.573-2.592,1.367-3.642,2.383c-1.119,1.068-1.951,2.232-2.496,3.496c-0.546,1.275-0.819,2.656-0.819,4.141
				c0,1.51,0.273,2.891,0.819,4.141c0.532,1.264,1.364,2.428,2.496,3.496c1.05,1.041,2.265,1.83,3.642,2.363
				c1.364,0.533,2.817,0.801,4.358,0.801c1.528,0,2.967-0.268,4.318-0.801s2.571-1.322,3.663-2.363
				c1.119-1.068,1.951-2.232,2.496-3.496c0.573-1.264,0.86-2.643,0.86-4.141c0-1.471-0.287-2.852-0.86-4.141
				c-0.559-1.25-1.384-2.416-2.476-3.496c-1.091-1.029-2.319-1.823-3.683-2.383c-1.351-0.534-2.79-0.801-4.318-0.801
				C240.473,276.418,239.02,276.685,237.656,277.219z"/>
			<path fill="#FAFAFA" d="M280.91,292.375v-3.457v-16.25h4.072v29.629l-19.869-20.215v2.227v17.539h-4.072v-29.414L280.91,292.375z
				"/>
			<path fill="#FAFAFA" d="M302.002,272.727h6.834v3.848h-6.834h-1.289v1.211v23.984h-4.072v-23.984v-1.211h-1.289h-6.834v-3.848
				h6.834H302.002z"/>
			<path fill="#FAFAFA" d="M311.145,288.078h13.587v3.086h-13.587V288.078z"/>
			<path fill="#FAFAFA" d="M345.579,272.668v3.867h-11.97h-1.269v1.211v6.348v1.23h1.269h8.655v3.867h-8.655h-1.269v1.211v6.348
				v1.23h1.269h11.97v3.867h-11.97h-5.34v-29.18H345.579z"/>
			<path fill="#FAFAFA" d="M368.983,292.375v-3.457v-16.25h4.072v29.629l-19.869-20.215v2.227v17.539h-4.072v-29.414
				L368.983,292.375z"/>
			<path fill="#FAFAFA" d="M386.167,272.746c1.91,0.104,3.663,0.469,5.259,1.094c1.883,0.716,3.561,1.771,5.034,3.164l0.021,0.02
				c1.351,1.289,2.36,2.842,3.028,4.658s1.003,3.682,1.003,5.596c0,1.928-0.334,3.793-1.003,5.596s-1.678,3.35-3.028,4.639
				l-0.021,0.02c-1.446,1.381-3.124,2.428-5.034,3.145c-1.882,0.729-3.922,1.094-6.118,1.094h-7.489v-29.023h7.489H386.167z
				 M385.349,297.902c1.624,0,3.11-0.24,4.461-0.723c1.337-0.469,2.53-1.197,3.581-2.188c1.023-1.002,1.787-2.154,2.292-3.457
				c0.504-1.275,0.757-2.709,0.757-4.297c0-1.562-0.252-2.988-0.757-4.277c-0.505-1.289-1.275-2.436-2.312-3.438
				c-1.023-0.963-2.223-1.706-3.601-2.227c-1.351-0.482-2.844-0.723-4.481-0.723h-2.148h-1.289v1.211v18.906v1.211h1.289h2.189
				H385.349z"/>
			<path fill="#FAFAFA" d="M419.292,268.391l-13.525,37.695h-3.765l13.525-37.695H419.292z"/>
			<path fill="#FAFAFA" d="M446.114,272.727v11.484v6.367c0,1.602-0.286,3.072-0.859,4.414c-0.601,1.354-1.487,2.592-2.66,3.711
				v0.02c-1.241,1.158-2.544,1.998-3.908,2.52c-1.405,0.561-2.939,0.84-4.604,0.84c-1.691,0-3.24-0.273-4.646-0.82
				c-1.459-0.572-2.762-1.426-3.908-2.559c-1.187-1.119-2.073-2.357-2.66-3.711c-0.572-1.342-0.859-2.812-0.859-4.414v-6.367
				v-11.484h4.113v11.484v5.684v0.664c0,1.016,0.197,1.979,0.594,2.891c0.368,0.859,0.947,1.674,1.739,2.441
				c0.764,0.742,1.623,1.295,2.578,1.66c0.928,0.377,1.937,0.566,3.028,0.566c1.036,0,2.039-0.189,3.008-0.566
				c0.955-0.377,1.808-0.932,2.558-1.66c0.75-0.678,1.344-1.49,1.78-2.441c0.396-0.912,0.594-1.875,0.594-2.891v-0.664v-5.684
				v-11.484H446.114z"/>
			<path fill="#FAFAFA" d="M450.878,272.727h4.072v29.043h-4.072V272.727z"/>
			<path fill="#FAFAFA" d="M481.01,272.746c1.91,0.104,3.663,0.469,5.259,1.094c1.883,0.716,3.561,1.771,5.034,3.164l0.021,0.02
				c1.35,1.289,2.359,2.842,3.028,4.658c0.668,1.816,1.002,3.682,1.002,5.596c0,1.928-0.334,3.793-1.002,5.596
				c-0.669,1.803-1.679,3.35-3.028,4.639l-0.021,0.02c-1.446,1.381-3.124,2.428-5.034,3.145c-1.883,0.729-3.922,1.094-6.118,1.094
				h-7.489v-29.023h7.489H481.01z M480.191,297.902c1.623,0,3.11-0.24,4.461-0.723c1.337-0.469,2.53-1.197,3.581-2.188
				c1.022-1.002,1.787-2.154,2.291-3.457c0.505-1.275,0.758-2.709,0.758-4.297c0-1.562-0.253-2.988-0.758-4.277
				c-0.504-1.289-1.275-2.436-2.312-3.438c-1.023-0.963-2.224-1.706-3.602-2.227c-1.351-0.482-2.845-0.723-4.481-0.723h-2.148
				h-1.289v1.211v18.906v1.211h1.289h2.189H480.191z"/>
			<path fill="#FAFAFA" d="M516.201,272.668v3.867H504.23h-1.269v1.211v6.348v1.23h1.269h8.655v3.867h-8.655h-1.269v1.211v6.348
				v1.23h1.269h11.971v3.867H504.23h-5.341v-29.18H516.201z"/>
			<path fill="#FAFAFA" d="M531.422,302.023l-12.912-29.297h2.098h2.117l8.677,20l8.696-20h4.297L531.422,302.023z"/>
			<path fill="#FAFAFA" d="M565.241,272.668v3.867h-11.971h-1.269v1.211v6.348v1.23h1.269h8.655v3.867h-8.655h-1.269v1.211v6.348
				v1.23h1.269h11.971v3.867h-11.971h-5.341v-29.18H565.241z"/>
			<path fill="#FAFAFA" d="M572.85,272.727v23.984v1.23h1.269h11.971v3.828h-17.312v-29.043H572.85z"/>
			<path fill="#FAFAFA" d="M609.759,273.566c1.787,0.716,3.458,1.81,5.014,3.281c1.527,1.458,2.667,3.047,3.417,4.766
				c0.764,1.758,1.146,3.646,1.146,5.664c0,2.031-0.382,3.92-1.146,5.664c-0.75,1.732-1.89,3.32-3.417,4.766
				c-1.501,1.432-3.172,2.514-5.014,3.242c-1.842,0.717-3.812,1.074-5.913,1.074c-2.128,0-4.106-0.357-5.935-1.074
				c-1.827-0.717-3.492-1.797-4.992-3.242c-1.542-1.459-2.674-3.053-3.396-4.785c-0.751-1.693-1.126-3.574-1.126-5.645
				c0-2.057,0.375-3.939,1.126-5.645c0.723-1.706,1.854-3.307,3.396-4.805c1.527-1.458,3.191-2.545,4.992-3.262
				c1.773-0.716,3.752-1.074,5.935-1.074C606.001,272.492,607.972,272.85,609.759,273.566z M599.487,277.219
				c-1.378,0.573-2.592,1.367-3.643,2.383c-1.118,1.068-1.95,2.232-2.496,3.496c-0.546,1.275-0.818,2.656-0.818,4.141
				c0,1.51,0.272,2.891,0.818,4.141c0.532,1.264,1.364,2.428,2.496,3.496c1.051,1.041,2.265,1.83,3.643,2.363
				c1.364,0.533,2.816,0.801,4.358,0.801c1.527,0,2.967-0.268,4.317-0.801s2.571-1.322,3.662-2.363
				c1.119-1.068,1.951-2.232,2.497-3.496c0.572-1.264,0.859-2.643,0.859-4.141c0-1.471-0.287-2.852-0.859-4.141
				c-0.56-1.25-1.385-2.416-2.477-3.496c-1.091-1.029-2.318-1.823-3.683-2.383c-1.351-0.534-2.79-0.801-4.317-0.801
				C602.304,276.418,600.852,276.685,599.487,277.219z"/>
			<path fill="#FAFAFA" d="M622.871,293.547v-11.016v-9.805h5.341h4.952c1.432,0,2.748,0.241,3.949,0.723
				c1.187,0.469,2.298,1.191,3.335,2.168c1.01,0.951,1.773,2.005,2.292,3.164c0.491,1.159,0.736,2.416,0.736,3.77
				c0,1.367-0.245,2.623-0.736,3.77c-0.505,1.133-1.262,2.182-2.271,3.145c-1.023,0.963-2.142,1.686-3.355,2.168
				c-1.215,0.469-2.531,0.703-3.949,0.703h-4.952h-1.269v1.211v8.223h-4.072V293.547z M626.943,288.488h1.269l4.952,0.02
				c0.873,0,1.671-0.143,2.394-0.43c0.71-0.273,1.385-0.709,2.026-1.309c0.586-0.586,1.036-1.23,1.351-1.934
				c0.313-0.664,0.47-1.426,0.47-2.285c0-0.834-0.156-1.588-0.47-2.266c-0.273-0.651-0.724-1.295-1.351-1.934
				c-0.601-0.586-1.269-1.029-2.006-1.328c-0.736-0.299-1.541-0.449-2.414-0.449h-4.952h-1.269v1.211v4.746v4.746V288.488z"/>
			<path fill="#FAFAFA" d="M664.324,272.668v3.867h-11.971h-1.269v1.211v6.348v1.23h1.269h8.655v3.867h-8.655h-1.269v1.211v6.348
				v1.23h1.269h11.971v3.867h-11.971h-5.341v-29.18H664.324z"/>
			<path fill="#FAFAFA" d="M667.859,272.727h9.495c1.514,0,2.946,0.254,4.297,0.762c1.282,0.482,2.428,1.178,3.438,2.09
				c1.036,1.002,1.76,1.959,2.169,2.871c0.437,0.951,0.654,2.09,0.654,3.418v0.82c0,1.002-0.156,1.928-0.471,2.773
				c-0.3,0.807-0.764,1.646-1.391,2.52c-0.532,0.703-1.037,1.217-1.515,1.543c-0.45,0.326-1.077,0.639-1.883,0.938l-1.432,0.547
				l0.839,1.25l6.425,9.512h-5.074l-6.937-10.176h-4.502v10.176h-4.093L667.859,272.727z M677.968,287.707l0.021,0.02
				c0.832,0,1.562-0.131,2.189-0.391c0.56-0.248,1.139-0.658,1.739-1.23c0.614-0.586,1.051-1.211,1.31-1.875
				c0.26-0.6,0.389-1.322,0.389-2.168c0-0.768-0.129-1.471-0.389-2.109c-0.245-0.547-0.675-1.133-1.289-1.758v-0.02
				c-0.56-0.521-1.296-0.924-2.21-1.211c-0.859-0.273-1.787-0.41-2.782-0.41h-3.725h-1.269v1.23v8.691v1.211h1.269l1.535,0.02h1.022
				H677.968z"/>
		</g>
	</g>
</g>
</svg>
